<svg width="27" height="22" viewBox="0 0 27 22" fill="none" xmlns="http://www.w3.org/2000/svg">
<path fill-rule="evenodd" clip-rule="evenodd" d="M13.5003 4.33734L3.87112 12.2758C3.87112 12.2868 3.86812 12.3039 3.8621 12.3259C3.85609 12.349 3.85408 12.364 3.85408 12.376V20.4147C3.85408 20.7053 3.95932 20.9569 4.17178 21.1683C4.38425 21.3798 4.6348 21.487 4.92544 21.487H11.3566V15.0559H15.644V21.487H22.0751C22.3648 21.487 22.6163 21.3808 22.8288 21.1683C23.0413 20.9569 23.1465 20.7053 23.1465 20.4147V12.376C23.1465 12.3319 23.1405 12.2978 23.1295 12.2758L13.5003 4.33734Z" fill="#39474E"/>
<path fill-rule="evenodd" clip-rule="evenodd" d="M26.8138 10.467L23.1467 7.41931V0.586289C23.1467 0.429945 23.0966 0.301663 22.9954 0.201443C22.8961 0.10022 22.7669 0.0501102 22.6105 0.0501102H19.3955C19.2381 0.0501102 19.1098 0.10022 19.0096 0.201443C18.9094 0.301663 18.8593 0.429945 18.8593 0.586289V3.85147L14.7723 0.435958C14.4165 0.145319 13.9916 0 13.5005 0C13.0094 0 12.5845 0.145319 12.2277 0.435958L0.186224 10.467C0.0739776 10.5562 0.0128432 10.6765 0.001819 10.8268C-0.00920524 10.9781 0.0298807 11.1094 0.119077 11.2207L1.15736 12.4604C1.24656 12.5606 1.36381 12.6217 1.50913 12.6438C1.64343 12.6558 1.77772 12.6167 1.91102 12.5275L13.5005 2.8643L25.089 12.5275C25.1782 12.6047 25.2954 12.6438 25.4407 12.6438H25.4919C25.6362 12.6217 25.7524 12.5596 25.8426 12.4604L26.8809 11.2207C26.9701 11.1094 27.0092 10.9781 26.9982 10.8268C26.9871 10.6765 26.925 10.5562 26.8138 10.467Z" fill="#39474E"/>
</svg>
