<svg width="21" height="17" viewBox="0 0 21 17" fill="none" xmlns="http://www.w3.org/2000/svg">
<path fill-rule="evenodd" clip-rule="evenodd" d="M19.6319 14.5346L13.8217 8.43215L19.6319 2.32973V14.5346ZM2.22413 15.4353L8.06631 9.2982L10.1134 11.4303C10.3496 11.6761 10.7326 11.6761 10.9677 11.4292L12.9637 9.33284L18.774 15.4353H2.22413ZM1.36745 14.5346V2.32301L7.20537 8.40308L1.36745 14.5346ZM18.7746 1.42908L10.5386 10.0804L2.2312 1.42908H18.7746ZM19.0265 0.155166H1.97347C0.972284 0.155166 0.155166 1.01225 0.155166 2.06601V14.7972C0.155166 15.8476 0.968028 16.7069 1.97347 16.7069H19.0265C20.0245 16.7069 20.8448 15.8543 20.8448 14.7972V2.06601C20.8448 1.01672 20.0309 0.155166 19.0265 0.155166Z" fill="#39474E"/>
<path d="M19.6319 14.5346L19.5195 14.6416L19.7871 14.9226V14.5346H19.6319ZM13.8217 8.43215L13.7093 8.32515L13.6074 8.43215L13.7093 8.53915L13.8217 8.43215ZM19.6319 2.32973H19.7871V1.94173L19.5195 2.22273L19.6319 2.32973ZM2.22413 15.4353L2.11174 15.3283L1.86218 15.5904H2.22413V15.4353ZM8.06631 9.2982L8.17824 9.19073L8.06583 9.07365L7.95392 9.19121L8.06631 9.2982ZM10.1134 11.4303L10.0014 11.5378L10.0015 11.5378L10.1134 11.4303ZM10.9677 11.4292L10.8553 11.3222L10.9677 11.4292ZM12.9637 9.33284L13.0761 9.22584L12.9637 9.1078L12.8513 9.22584L12.9637 9.33284ZM18.774 15.4353V15.5904H19.136L18.8863 15.3283L18.774 15.4353ZM1.36745 14.5346H1.21228V14.9226L1.47983 14.6416L1.36745 14.5346ZM1.36745 2.32301L1.47938 2.21554L1.21228 1.93736V2.32301H1.36745ZM7.20537 8.40308L7.31775 8.51008L7.42006 8.40263L7.3173 8.29561L7.20537 8.40308ZM18.7746 1.42908L18.887 1.53607L19.1366 1.2739H18.7746V1.42908ZM10.5386 10.0804L10.4266 10.1879L10.539 10.3049L10.651 10.1874L10.5386 10.0804ZM2.2312 1.42908V1.2739H1.86707L2.11928 1.53655L2.2312 1.42908ZM19.7443 14.4276L13.934 8.32515L13.7093 8.53915L19.5195 14.6416L19.7443 14.4276ZM13.934 8.53915L19.7443 2.43673L19.5195 2.22273L13.7093 8.32515L13.934 8.53915ZM19.4768 2.32973V14.5346H19.7871V2.32973H19.4768ZM2.33652 15.5422L8.1787 9.40519L7.95392 9.19121L2.11174 15.3283L2.33652 15.5422ZM7.95438 9.40566L10.0014 11.5378L10.2253 11.3228L8.17824 9.19073L7.95438 9.40566ZM10.0015 11.5378C10.2986 11.8471 10.7837 11.8475 11.0801 11.5362L10.8553 11.3222C10.6814 11.5048 10.4005 11.5052 10.2253 11.3228L10.0015 11.5378ZM11.0801 11.5362L13.0761 9.43984L12.8513 9.22584L10.8553 11.3222L11.0801 11.5362ZM12.8513 9.43984L18.6616 15.5423L18.8863 15.3283L13.0761 9.22584L12.8513 9.43984ZM18.774 15.2801H2.22413V15.5904H18.774V15.2801ZM1.52262 14.5346V2.32301H1.21228V14.5346H1.52262ZM1.25552 2.43048L7.09344 8.51055L7.3173 8.29561L1.47938 2.21554L1.25552 2.43048ZM7.09299 8.29608L1.25507 14.4276L1.47983 14.6416L7.31775 8.51008L7.09299 8.29608ZM18.6623 1.32208L10.4262 9.97341L10.651 10.1874L18.887 1.53607L18.6623 1.32208ZM10.6505 9.97293L2.34313 1.3216L2.11928 1.53655L10.4266 10.1879L10.6505 9.97293ZM2.2312 1.58425H18.7746V1.2739H2.2312V1.58425ZM19.0265 -6.32015e-06H1.97347V0.310339H19.0265V-6.32015e-06ZM1.97347 -6.32015e-06C0.879498 -6.32015e-06 -6.32015e-06 0.933816 -6.32015e-06 2.06601H0.310339C0.310339 1.09069 1.06507 0.310339 1.97347 0.310339V-6.32015e-06ZM-6.32015e-06 2.06601V14.7972H0.310339V2.06601H-6.32015e-06ZM-6.32015e-06 14.7972C-6.32015e-06 15.9257 0.874955 16.8621 1.97347 16.8621V16.5517C1.0611 16.5517 0.310339 15.7694 0.310339 14.7972H-6.32015e-06ZM1.97347 16.8621H19.0265V16.5517H1.97347V16.8621ZM19.0265 16.8621C20.1168 16.8621 21 15.9332 21 14.7972H20.6897C20.6897 15.7754 19.9322 16.5517 19.0265 16.5517V16.8621ZM21 14.7972V2.06601H20.6897V14.7972H21ZM21 2.06601C21 0.938709 20.1241 -6.32015e-06 19.0265 -6.32015e-06V0.310339C19.9377 0.310339 20.6897 1.09474 20.6897 2.06601H21Z" fill="#39474E"/>
</svg>
